<svg width="24" height="24" viewBox="0 0 24 24" fill="none" xmlns="http://www.w3.org/2000/svg">
<path d="M21.6667 3H5.33333C4.05 3 3 4.05 3 5.33333V13.5C3 14.7833 4.05 15.8333 5.33333 15.8333H21.6667C22.95 15.8333 24 14.7833 24 13.5V5.33333C24 4.05 22.95 3 21.6667 3ZM21.6667 10H17C17 11.89 15.39 13.5 13.5 13.5C11.61 13.5 10 11.89 10 10H5.33333V5.33333H21.6667V10ZM17 18.1667H24V21.6667C24 22.95 22.95 24 21.6667 24H5.33333C4.05 24 3 22.95 3 21.6667V18.1667H10C10 20.1033 11.5633 21.6667 13.5 21.6667C15.4367 21.6667 17 20.1033 17 18.1667Z" fill="white" fill-opacity="0.8"/>
</svg>
