<svg width="45" height="45" viewBox="0 0 45 45" fill="none" xmlns="http://www.w3.org/2000/svg">
<path d="M35.475 10.9763C35.1 9.91919 34.05 9.16669 32.8125 9.16669H12.1875C10.95 9.16669 9.91875 9.91919 9.525 10.9763L5.625 21.7084V36.0417C5.625 37.0271 6.46875 37.8334 7.5 37.8334H9.375C10.4062 37.8334 11.25 37.0271 11.25 36.0417V34.25H33.75V36.0417C33.75 37.0271 34.5938 37.8334 35.625 37.8334H37.5C38.5312 37.8334 39.375 37.0271 39.375 36.0417V21.7084L35.475 10.9763ZM12.1875 28.875C10.6312 28.875 9.375 27.6746 9.375 26.1875C9.375 24.7004 10.6312 23.5 12.1875 23.5C13.7437 23.5 15 24.7004 15 26.1875C15 27.6746 13.7437 28.875 12.1875 28.875ZM32.8125 28.875C31.2563 28.875 30 27.6746 30 26.1875C30 24.7004 31.2563 23.5 32.8125 23.5C34.3687 23.5 35.625 24.7004 35.625 26.1875C35.625 27.6746 34.3687 28.875 32.8125 28.875ZM9.375 19.9167L12.1875 11.8542H32.8125L35.625 19.9167H9.375Z" fill="white"/>
</svg>
