<svg width="25" height="24" viewBox="0 0 25 24" fill="none" xmlns="http://www.w3.org/2000/svg">
<g clip-path="url(#clip0)">
<path d="M19.2704 5V19H5.6226V5H19.2704ZM20.3427 3H4.55027C4.06285 3 3.67291 3.4 3.67291 3.9V20.1C3.67291 20.5 4.06285 21 4.55027 21H20.3427C20.7327 21 21.2201 20.5 21.2201 20.1V3.9C21.2201 3.4 20.7327 3 20.3427 3ZM11.4717 7H17.3207V9H11.4717V7ZM11.4717 11H17.3207V13H11.4717V11ZM11.4717 15H17.3207V17H11.4717V15ZM7.57228 7H9.52197V9H7.57228V7ZM7.57228 11H9.52197V13H7.57228V11ZM7.57228 15H9.52197V17H7.57228V15Z" fill="white" fill-opacity="0.8"/>
</g>
<defs>
<clipPath id="clip0">
<rect width="23.3962" height="24" fill="white" transform="translate(0.748413)"/>
</clipPath>
</defs>
</svg>
